<?xml version="1.0" encoding="utf-8"?>
<!-- Generator: Adobe Illustrator 16.0.0, SVG Export Plug-In . SVG Version: 6.00 Build 0)  -->
<!DOCTYPE svg PUBLIC "-//W3C//DTD SVG 1.1//EN" "http://www.w3.org/Graphics/SVG/1.1/DTD/svg11.dtd">
<svg version="1.1" id="Layer_1" xmlns="http://www.w3.org/2000/svg" xmlns:xlink="http://www.w3.org/1999/xlink" x="0px" y="0px"
	 width="300px" height="300px" viewBox="0 0 300 300" enable-background="new 0 0 300 300" xml:space="preserve">
<g>
	<path fill="#D1D8DB" d="M298.318,164.94c-0.238-0.343-0.732-0.788-1.099-0.989l-19.682-10.777c-0.366-0.201-0.366-0.529,0-0.729
		l2.297-1.256c0.366-0.2,0.366-0.528,0-0.729l-14.627-8.005c-0.366-0.201-0.366-0.529,0-0.729l14.627-8.009
		c0.366-0.201,0.366-0.529,0-0.729L171.79,73.84c-0.366-0.201-0.966-0.201-1.332,0L95.839,114.69c-0.367,0.201-0.966,0.201-1.333,0
		L56.881,94.094c-0.367-0.201-0.811-0.675-0.986-1.054l-5.556-11.961c-0.176-0.379-0.621-0.85-0.99-1.047L0.67,53.991
		c-0.369-0.197-0.551-0.038-0.406,0.354l35.314,95.513c0.145,0.392,0.37,1.038,0.499,1.435l5.294,16.258
		c0.129,0.397,0.53,0.896,0.89,1.108l2.093,1.234c0.36,0.212,0.954,0.55,1.321,0.751l119.661,65.51
		c0.366,0.201,0.993,0.464,1.394,0.585l4.858,0.797c0.418,0.008,0.952-0.006,1.187-0.032c0.234-0.025,0.761-0.117,1.17-0.203
		l1.603-0.505c0.39-0.152,1.008-0.44,1.374-0.642L297.22,170.29c0.366-0.201,0.861-0.646,1.099-0.989V164.94z M252.373,160
		c0.002,0-0.297,0.163-0.664,0.363l-79.919,43.535c-0.367,0.2-0.966,0.197-1.331-0.006l-11.708-6.508
		c-0.365-0.203-0.783-0.689-0.929-1.081l-4.534-12.218c-0.146-0.392,0.035-0.548,0.402-0.348l16.766,9.153
		c0.367,0.2,0.967,0.2,1.333-0.001l86.001-47.094c0.366-0.201,0.963-0.196,1.326,0.011l8.554,4.869
		c0.363,0.207,0.362,0.543-0.002,0.747l-14.635,8.205C252.669,159.833,252.372,160,252.373,160z M170.458,80.497
		c0.366-0.201,0.966-0.201,1.332,0l95.875,52.491c0.366,0.201,0.366,0.529,0,0.729l-14.622,8.009
		c-0.366,0.201-0.966,0.529-1.332,0.729l-79.921,43.752c-0.366,0.201-0.966,0.201-1.332,0l-19.883-10.885
		c-0.366-0.201-0.785-0.686-0.931-1.077l-13.489-36.191c-0.146-0.392-0.565-0.876-0.932-1.077l-33.301-18.229
		c-0.367-0.201-0.367-0.529,0-0.729L170.458,80.497z M171.79,221.145c-0.366,0.2-0.966,0.2-1.332,0l-3.524-1.929
		c-0.366-0.2-0.785-0.685-0.932-1.076l-4.532-12.162c-0.146-0.392,0.034-0.548,0.4-0.347l8.589,4.701
		c0.366,0.201,0.966,0.201,1.332,0.001l86.001-47.076c0.366-0.2,0.966-0.2,1.332,0.001l8.542,4.676c0.366,0.2,0.366,0.528,0,0.729
		L171.79,221.145z"/>
</g>
</svg>
