<?xml version="1.0" encoding="utf-8"?>
<!-- Generator: Adobe Illustrator 16.0.0, SVG Export Plug-In . SVG Version: 6.00 Build 0)  -->
<!DOCTYPE svg PUBLIC "-//W3C//DTD SVG 1.1//EN" "http://www.w3.org/Graphics/SVG/1.1/DTD/svg11.dtd">
<svg version="1.1" id="Layer_1" xmlns="http://www.w3.org/2000/svg" xmlns:xlink="http://www.w3.org/1999/xlink" x="0px" y="0px"
	 width="400px" height="400px" viewBox="0 0 400 400" enable-background="new 0 0 400 400" xml:space="preserve">
<g>
	<polygon fill="#F15A24" points="220.682,246.954 202.942,237.312 207.905,250.767 220.682,258.039 300.317,215 300.312,215 
		315.954,205.9 306.276,200.061 	"/>
	<polygon fill="#F15A24" points="300.317,196.765 315.954,188.2 220.682,136.04 152.205,173.531 186.149,192.112 199.889,228.978 
		220.682,240.362 	"/>
	<polygon fill="#F15A24" points="220.682,264.005 210.958,258.681 215.922,271.997 220.682,274.602 315.954,222.45 306.276,217.151 
			"/>
	<path fill="#F15A24" d="M384.711,0H15.289C6.845,0,0,6.845,0,15.289v369.422C0,393.155,6.845,400,15.289,400h369.422
		c8.444,0,15.289-6.845,15.289-15.289V15.289C400,6.845,393.155,0,384.711,0z M344.921,224.045l-119.209,65.269
		c-0.859,0.469-1.9,0.742-2.993,0.92l-0.838,0.091c-2.2,0.204-4.526-0.086-6.218-1.011L97.079,224.392l-3.334-1.965l-5.65-17.351
		l-35.129-95.008l49.023,26.224l6.073,13.074l38.182,20.901l74.438-40.752l107.2,58.686l-15.641,8.565l15.641,8.56l-3.557,1.945
		l20.596,11.278C347.685,220.062,347.685,222.536,344.921,224.045z"/>
</g>
</svg>
