<?xml version="1.0" encoding="utf-8"?>
<!-- Generator: Adobe Illustrator 16.0.0, SVG Export Plug-In . SVG Version: 6.00 Build 0)  -->
<!DOCTYPE svg PUBLIC "-//W3C//DTD SVG 1.1//EN" "http://www.w3.org/Graphics/SVG/1.1/DTD/svg11.dtd">
<svg version="1.1" id="Layer_1" xmlns="http://www.w3.org/2000/svg" xmlns:xlink="http://www.w3.org/1999/xlink" x="0px" y="0px"
	 width="300px" height="300px" viewBox="0 0 300 300" enable-background="new 0 0 300 300" xml:space="preserve">
<rect x="966.028" y="252" fill="#F15A24" width="64" height="44"/>
<path fill="#F15A24" d="M297.886,164.317l-21.014-11.508l3.629-1.985l-15.959-8.734l15.959-8.739L171.124,73.475l-75.951,41.58
	L56.215,93.729l-6.196-13.339L0,53.633l35.842,96.938l5.765,17.703l3.402,2.005l120.993,66.241c1.726,0.943,4.1,1.239,6.345,1.031
	l0.854-0.093c1.115-0.182,2.177-0.461,3.054-0.938l121.631-66.595C300.706,168.386,300.706,165.861,297.886,164.317z M252.376,160
	l-81.253,44.262l-13.036-7.246l-5.064-13.642l18.1,9.882l87.333-47.824l9.874,5.621L252.371,160H252.376z M171.124,80.132
	l97.207,53.22l-15.954,8.739l-81.253,44.482l-21.215-11.615l-14.019-37.615l-34.634-18.958L171.124,80.132z M171.124,221.509
	l-4.856-2.658l-5.064-13.586l9.921,5.432l87.333-47.805l9.874,5.406L171.124,221.509z"/>
</svg>
